<svg xmlns="http://www.w3.org/2000/svg" viewBox="0 0 330 250"><g fill="none" stroke-width="2"><path stroke="#fbad84" d="M169.45 83.2c-4.61-18.81-31.62-18.55-36.29-.07A1.21 1.15 6.8 0 1 132 84h-29.25a.5.5 0 0 0-.5.5v18.25a.51.46.6 0 0 .5.46l6.76.14a.49.3 1.4 0 0 .49-.29l.27-10.81a.51.48-89.4 0 1 .48-.5H192a.75.75 0 0 1 .75.75v10.25a.5.5 0 0 0 .5.5H200a.5.5 0 0 0 .5-.5V84.5a.5.49 0 0 0-.5-.49l-30.06-.03a.94.34 77.9 0 1-.49-.78" vector-effect="non-scaling-stroke"/><path stroke="#869cc7" d="M110.53 113.5a4.43 4.43 0 0 0-4.43-4.43 4.43 4.43 0 0 0-4.43 4.43 4.43 4.43 0 0 0 4.43 4.43 4.43 4.43 0 0 0 4.43-4.43" vector-effect="non-scaling-stroke"/><path stroke="#fbad84" d="M186.5 111.38a.41.41 0 0 0-.41-.41h-6.68a.41.41 0 0 0-.41.41v41.46a.41.41 0 0 0 .41.41h6.68a.41.41 0 0 0 .41-.41v-41.46" vector-effect="non-scaling-stroke"/><path stroke="#869cc7" d="m72.19 126 .09-14.25a.75.53-90 0 0-.53-.75H65a.75.5-90 0 0-.5.75v40.94a.56.5 90 0 0 .5.56h5.75a.95.24.6 0 0 .91-.22l.42-2.51q.16-.93.69-.26c1.68 2.13 4.12 3.23 6.91 3.54 8.94 1 16.51-4.29 17.27-13.4.45-5.33-.65-10.46-4.72-14.09-6.1-5.43-13.18-4.13-19.74-.13q-.3.18-.3-.18" vector-effect="non-scaling-stroke"/><path stroke="#fbad84" d="M200.5 111.31a.31.31 0 0 0-.31-.31h-7.12a.31.31 0 0 0-.31.31v41.62a.31.31 0 0 0 .31.31h7.12a.31.31 0 0 0 .31-.31v-41.62m-33.01 33.42a.56.32-33.8 0 0-.55.04c-5.62 3.2-12.71 3.87-16.37-2.59a.76.72-14.3 0 1 .68-1.08l21.75-.14a.56.49 2.2 0 0 .54-.43c1.51-12.44-6.89-19.99-18.57-17.85-22.54 4.14-13.04 42.91 15.2 28.28q2.52-1.3.7-3.03l-3.38-3.2m46.26-3.6 22.25-.18a.48.47 2 0 0 .47-.43c1.34-12.88-7.34-20.08-19.75-17.6-10.93 2.18-14.93 17.24-8.53 25.17 6.38 7.91 17.84 7.82 25.75 1.78a.97.48-38.7 0 0 .48-1.03l-4.13-4.13a1.05.38-31.3 0 0-.99.2c-5.4 3.06-13.23 3.74-15.82-3.12a.5.36 76.4 0 1 .27-.66m35.56-15.7-.4-1.61a.76.66 81.5 0 0-.66-.57h-6a.75.5-90 0 0-.5.75v28.75a.5.5 0 0 0 .5.5H249a.54.47 90 0 0 .47-.54c.05-4.92-.95-14.64.8-18.65 2.33-5.37 7.31-3.73 11.72-2.41a.73.55-67.5 0 0 .72-.42l2.14-4.34a1.87 1.73-61.5 0 0-.6-2.36q-7.44-4.51-14.14.76a.65.29-34 0 1-.8.14" vector-effect="non-scaling-stroke"/><path stroke="#869cc7" d="M110.01 123.85a.6.6 0 0 0-.6-.6h-6.56a.6.6 0 0 0-.6.6v28.8a.6.6 0 0 0 .6.6h6.56a.6.6 0 0 0 .6-.6v-28.8m16.58 21.43q5.87-8.55 12.08-16.86 1.31-1.75.76-4.6a.7.69 84.4 0 0-.68-.57h-22.5a.75.5 0 0 0-.75.5v6a.75.5 0 0 0 .75.5h11.25q1.2 0 .53.89-6.85 9.13-13.37 18.79-.8 1.18.12 2.89a.82.81-14 0 0 .72.43H139a.75.5 0 0 0 .75-.5v-6.5a.75.5 0 0 0-.75-.5h-12.25q-.48 0-.16-.47m-16.12 27.97a.47.47 0 0 1-.47-.47v-10.56a.47.47 0 0 0-.47-.47h-6.81a.47.47 0 0 0-.47.47v18.31a.47.47 0 0 0 .47.47h97.31a.47.47 0 0 0 .47-.47V162.2a.47.47 0 0 0-.48-.47l-6.81.07a.47.47 0 0 0-.46.47v10.51a.47.47 0 0 1-.47.47h-81.81" vector-effect="non-scaling-stroke"/><path stroke="#fbad84" d="M163.04 83.16c-4.31-10.53-19.35-10.48-23.33.08a.55.39-76.2 0 0 .29.73l22.75-.11a.52.39 75.7 0 0 .29-.7" vector-effect="non-scaling-stroke"/><path stroke="#869cc7" d="M89.53 138.34a8.44 8.44 0 0 0-8.44-8.44 8.44 8.44 0 0 0-8.44 8.44 8.44 8.44 0 0 0 8.44 8.44 8.44 8.44 0 0 0 8.44-8.44" vector-effect="non-scaling-stroke"/><path stroke="#fbad84" d="M163.53 130.75q-7.34-3.89-12.44 2.69-.93 1.2.41 1.2l14-.01a.54.43 83.5 0 0 .4-.64q-.4-2.2-2.37-3.24m62.78-.06q-7.18-3.68-12.25 2.4-1.29 1.55.68 1.57l13.26.13a.59.57 86.9 0 0 .57-.66q-.32-2.45-2.26-3.44" vector-effect="non-scaling-stroke"/></g><path fill="#fff" d="M0 0h330v250H0V0Zm169.45 83.2c-4.61-18.81-31.62-18.55-36.29-.07A1.21 1.15 6.8 0 1 132 84h-29.25a.5.5 0 0 0-.5.5v18.25a.51.46.6 0 0 .5.46l6.76.14a.49.3 1.4 0 0 .49-.29l.27-10.81a.51.48-89.4 0 1 .48-.5H192a.75.75 0 0 1 .75.75v10.25a.5.5 0 0 0 .5.5H200a.5.5 0 0 0 .5-.5V84.5a.5.49 0 0 0-.5-.49l-30.06-.03a.94.34 77.9 0 1-.49-.78Zm-58.92 30.3a4.43 4.43 0 0 0-4.43-4.43 4.43 4.43 0 0 0-4.43 4.43 4.43 4.43 0 0 0 4.43 4.43 4.43 4.43 0 0 0 4.43-4.43Zm75.97-2.12a.41.41 0 0 0-.41-.41h-6.68a.41.41 0 0 0-.41.41v41.46a.41.41 0 0 0 .41.41h6.68a.41.41 0 0 0 .41-.41v-41.46ZM72.19 126l.09-14.25a.75.53-90 0 0-.53-.75H65a.75.5-90 0 0-.5.75v40.94a.56.5 90 0 0 .5.56h5.75a.95.24.6 0 0 .91-.22l.42-2.51q.16-.93.69-.26c1.68 2.13 4.12 3.23 6.91 3.54 8.94 1 16.51-4.29 17.27-13.4.45-5.33-.65-10.46-4.72-14.09-6.1-5.43-13.18-4.13-19.74-.13q-.3.18-.3-.18Zm128.31-14.69a.31.31 0 0 0-.31-.31h-7.12a.31.31 0 0 0-.31.31v41.62a.31.31 0 0 0 .31.31h7.12a.31.31 0 0 0 .31-.31v-41.62Zm-33.01 33.42a.56.32-33.8 0 0-.55.04c-5.62 3.2-12.71 3.87-16.37-2.59a.76.72-14.3 0 1 .68-1.08l21.75-.14a.56.49 2.2 0 0 .54-.43c1.51-12.44-6.89-19.99-18.57-17.85-22.54 4.14-13.04 42.91 15.2 28.28q2.52-1.3.7-3.03l-3.38-3.2Zm46.26-3.6 22.25-.18a.48.47 2 0 0 .47-.43c1.34-12.88-7.34-20.08-19.75-17.6-10.93 2.18-14.93 17.24-8.53 25.17 6.38 7.91 17.84 7.82 25.75 1.78a.97.48-38.7 0 0 .48-1.03l-4.13-4.13a1.05.38-31.3 0 0-.99.2c-5.4 3.06-13.23 3.74-15.82-3.12a.5.36 76.4 0 1 .27-.66Zm35.56-15.7-.4-1.61a.76.66 81.5 0 0-.66-.57h-6a.75.5-90 0 0-.5.75v28.75a.5.5 0 0 0 .5.5H249a.54.47 90 0 0 .47-.54c.05-4.92-.95-14.64.8-18.65 2.33-5.37 7.31-3.73 11.72-2.41a.73.55-67.5 0 0 .72-.42l2.14-4.34a1.87 1.73-61.5 0 0-.6-2.36q-7.44-4.51-14.14.76a.65.29-34 0 1-.8.14Zm-139.3-1.58a.6.6 0 0 0-.6-.6h-6.56a.6.6 0 0 0-.6.6v28.8a.6.6 0 0 0 .6.6h6.56a.6.6 0 0 0 .6-.6v-28.8Zm16.58 21.43q5.87-8.55 12.08-16.86 1.31-1.75.76-4.6a.7.69 84.4 0 0-.68-.57h-22.5a.75.5 0 0 0-.75.5v6a.75.5 0 0 0 .75.5h11.25q1.2 0 .53.89-6.85 9.13-13.37 18.79-.8 1.18.12 2.89a.82.81-14 0 0 .72.43H139a.75.5 0 0 0 .75-.5v-6.5a.75.5 0 0 0-.75-.5h-12.25q-.48 0-.16-.47Zm-16.12 27.97a.47.47 0 0 1-.47-.47v-10.56a.47.47 0 0 0-.47-.47h-6.81a.47.47 0 0 0-.47.47v18.31a.47.47 0 0 0 .47.47h97.31a.47.47 0 0 0 .47-.47V162.2a.47.47 0 0 0-.48-.47l-6.81.07a.47.47 0 0 0-.46.47v10.51a.47.47 0 0 1-.47.47h-81.81Z"/><path fill="#f65a09" d="m169.94 83.98 30.06.03a.5.49 0 0 1 .5.49v18.25a.5.5 0 0 1-.5.5h-6.75a.5.5 0 0 1-.5-.5V92.5a.75.75 0 0 0-.75-.75h-81.25a.51.48-89.4 0 0-.48.5l-.27 10.81a.49.3 1.4 0 1-.49.29l-6.76-.14a.51.46.6 0 1-.5-.46V84.5a.5.5 0 0 1 .5-.5H132a1.21 1.15 6.8 0 0 1.16-.87c4.67-18.48 31.68-18.74 36.29.07a.94.34 77.9 0 0 .49.78Zm-6.9-.82c-4.31-10.53-19.35-10.48-23.33.08a.55.39-76.2 0 0 .29.73l22.75-.11a.52.39 75.7 0 0 .29-.7Z"/><path fill="#fff" d="M139.71 83.24c3.98-10.56 19.02-10.61 23.33-.08a.52.39 75.7 0 1-.29.7l-22.75.11a.55.39-76.2 0 1-.29-.73Z"/><circle cx="106.1" cy="113.5" r="4.43" fill="#0d388e"/><rect width="7.5" height="42.28" x="179" y="110.97" fill="#f65a09" rx=".41"/><path fill="#0d388e" d="M72.49 126.18c6.56-4 13.64-5.3 19.74.13 4.07 3.63 5.17 8.76 4.72 14.09-.76 9.11-8.33 14.4-17.27 13.4-2.79-.31-5.23-1.41-6.91-3.54q-.53-.67-.69.26l-.42 2.51a.95.24.6 0 1-.91.22H65a.56.5-90 0 1-.5-.56v-40.94a.75.5-90 0 1 .5-.75h6.75a.75.53 90 0 1 .53.75L72.19 126q0 .36.3.18Zm17.04 12.16a8.44 8.44 0 0 0-8.44-8.44 8.44 8.44 0 0 0-8.44 8.44 8.44 8.44 0 0 0 8.44 8.44 8.44 8.44 0 0 0 8.44-8.44Z"/><rect width="7.74" height="42.24" x="192.76" y="111" fill="#f65a09" rx=".31"/><path fill="#f65a09" d="m167.49 144.73 3.38 3.2q1.82 1.73-.7 3.03c-28.24 14.63-37.74-24.14-15.2-28.28 11.68-2.14 20.08 5.41 18.57 17.85a.56.49 2.2 0 1-.54.43l-21.75.14a.76.72-14.3 0 0-.68 1.08c3.66 6.46 10.75 5.79 16.37 2.59a.56.32-33.8 0 1 .55-.04Zm-3.96-13.98q-7.34-3.89-12.44 2.69-.93 1.2.41 1.2l14-.01a.54.43 83.5 0 0 .4-.64q-.4-2.2-2.37-3.24Zm49.95 11.04c2.59 6.86 10.42 6.18 15.82 3.12a1.05.38-31.3 0 1 .99-.2l4.13 4.13a.97.48-38.7 0 1-.48 1.03c-7.91 6.04-19.37 6.13-25.75-1.78-6.4-7.93-2.4-22.99 8.53-25.17 12.41-2.48 21.09 4.72 19.75 17.6a.48.47 2 0 1-.47.43l-22.25.18a.5.36 76.4 0 0-.27.66Zm12.83-11.1q-7.18-3.68-12.25 2.4-1.29 1.55.68 1.57l13.26.13a.59.57 86.9 0 0 .57-.66q-.32-2.45-2.26-3.44Zm23.8-5.4q6.7-5.27 14.14-.76a1.87 1.73-61.5 0 1 .6 2.36l-2.14 4.34a.73.55-67.5 0 1-.72.42c-4.41-1.32-9.39-2.96-11.72 2.41-1.75 4.01-.75 13.73-.8 18.65a.54.47 90 0 1-.47.54h-6.75a.5.5 0 0 1-.5-.5V124a.75.5-90 0 1 .5-.75h6a.76.66 81.5 0 1 .66.57l.4 1.61a.65.29-34 0 0 .8-.14Z"/><rect width="7.76" height="30" x="102.25" y="123.25" fill="#0d388e" rx=".6"/><path fill="#0d388e" d="M126.75 145.75H139a.75.5 0 0 1 .75.5v6.5a.75.5 0 0 1-.75.5h-23.5a.82.81-14 0 1-.72-.43q-.92-1.71-.12-2.89 6.52-9.66 13.37-18.79.67-.89-.53-.89h-11.25a.75.5 0 0 1-.75-.5v-6a.75.5 0 0 1 .75-.5h22.5a.7.69 84.4 0 1 .68.57q.55 2.85-.76 4.6-6.21 8.31-12.08 16.86-.32.47.16.47Z"/><path fill="#fff" d="M163.53 130.75q1.97 1.04 2.37 3.24a.54.43 83.5 0 1-.4.64l-14 .01q-1.34 0-.41-1.2 5.1-6.58 12.44-2.69Zm62.78-.06q1.94.99 2.26 3.44a.59.57 86.9 0 1-.57.66l-13.26-.13q-1.97-.02-.68-1.57 5.07-6.08 12.25-2.4Z"/><circle cx="81.09" cy="138.34" r="8.44" fill="#fff"/><path fill="#0d388e" d="M110.47 173.25h81.81a.47.47 0 0 0 .47-.47v-10.51a.47.47 0 0 1 .46-.47l6.81-.07a.47.47 0 0 1 .48.47v18.33a.47.47 0 0 1-.47.47h-97.31a.47.47 0 0 1-.47-.47v-18.31a.47.47 0 0 1 .47-.47h6.81a.47.47 0 0 1 .47.47v10.56a.47.47 0 0 0 .47.47Z"/></svg>